<svg xmlns="http://www.w3.org/2000/svg" width="100%" height="100%" viewBox="0 0 76 24" fill="currentColor">
  <path d="M43.6709 8.82224C44.3459 8.82643 45.0124 8.96835 45.625 9.23825C46.2376 9.50822 46.7825 9.90043 47.2227 10.3877V9.10446H49.9629V19.1269H47.2227V17.8437C46.7825 18.3309 46.2376 18.7232 45.625 18.9931C45.0124 19.263 44.3459 19.405 43.6709 19.4091C40.9196 19.409 38.6895 17.045 38.6895 14.1181C38.6895 11.1913 40.9306 8.82237 43.6709 8.82224ZM69.1738 8.80661C69.904 8.80662 70.6272 8.94378 71.3018 9.20993C71.9764 9.47612 72.5893 9.86657 73.1055 10.3584C73.6215 10.8501 74.0306 11.4338 74.3096 12.0761C74.5885 12.7186 74.7321 13.4074 74.7314 14.1025C74.7314 15.1501 74.4045 16.1739 73.793 17.0449C73.1814 17.9159 72.3127 18.5954 71.2959 18.9961C70.2791 19.3967 69.1603 19.5006 68.0811 19.2959C67.0018 19.0911 66.0102 18.5868 65.2324 17.8457C64.4547 17.1046 63.925 16.1603 63.7109 15.1328C63.4969 14.1052 63.6084 13.0398 64.0303 12.0722C64.4522 11.1048 65.1665 10.2785 66.082 9.69724C66.9976 9.11605 68.0734 8.80558 69.1738 8.80661ZM32.9014 5.0195C33.5351 5.01952 34.1626 5.13811 34.748 5.36911C35.3336 5.60017 35.8655 5.93929 36.3135 6.36618C36.7614 6.79305 37.1164 7.2998 37.3584 7.85739C37.6004 8.41485 37.7253 9.01204 37.7246 9.6152V9.67868C37.7297 10.5499 37.4743 11.4047 36.9893 12.1435C36.5042 12.8822 35.8092 13.4752 34.9844 13.8525L38.1904 19.0957H35.126L32.2051 14.2744H29.1191V19.0752H26.3789V5.0195H32.9014ZM54.7646 9.10446H57.0771V11.5879H54.7646V15.9238C54.7647 16.1511 54.8577 16.3695 55.0244 16.5322C55.1914 16.695 55.4193 16.7894 55.6582 16.7949H57.3018V19.0957H54.918C54.5377 19.0964 54.161 19.0259 53.8096 18.8877C53.4581 18.7495 53.139 18.546 52.8701 18.29C52.6013 18.0341 52.3883 17.73 52.2432 17.3955C52.0981 17.061 52.0237 16.7027 52.0244 16.3408V7.12692L54.7646 6.34958V9.10446ZM61.7197 19.0957H58.9951V9.10446H61.7197V19.0957ZM45.4443 11.5771C44.9205 11.3701 44.3435 11.3158 43.7871 11.4209C43.2307 11.526 42.7195 11.7861 42.3184 12.1679C41.9171 12.5499 41.6436 13.0366 41.5332 13.5664C41.4228 14.0961 41.4806 14.6457 41.6982 15.1445C41.9159 15.643 42.2839 16.0688 42.7559 16.3681C43.228 16.6675 43.7832 16.8271 44.3506 16.8261C45.1094 16.8261 45.8375 16.539 46.374 16.0283C46.9105 15.5176 47.2119 14.8247 47.2119 14.1025C47.213 13.5626 47.0458 13.0343 46.7314 12.5849C46.4169 12.1354 45.9683 11.7843 45.4443 11.5771ZM70.2676 11.5771C69.7436 11.37 69.1668 11.3158 68.6104 11.4209C68.0539 11.526 67.5428 11.7861 67.1416 12.1679C66.7404 12.5499 66.4669 13.0366 66.3564 13.5664C66.246 14.0962 66.3039 14.6457 66.5215 15.1445C66.7391 15.643 67.1071 16.0688 67.5791 16.3681C68.0513 16.6676 68.6064 16.8272 69.1738 16.8261C69.9321 16.8247 70.6591 16.5377 71.1953 16.0273C71.7315 15.5169 72.0337 14.8244 72.0352 14.1025C72.0362 13.5624 71.8682 13.0344 71.5537 12.5849C71.2392 12.1354 70.7916 11.7843 70.2676 11.5771ZM29.0977 7.6904V11.6455H32.8633C33.4102 11.6454 33.935 11.4389 34.3223 11.0713C34.7096 10.7035 34.9272 10.2043 34.9287 9.68356V9.65231C34.9273 9.1316 34.7095 8.63236 34.3223 8.26462C33.935 7.89698 33.4102 7.69052 32.8633 7.6904H29.0977ZM60.3604 4.84177C61.2321 4.84177 61.9395 5.51483 61.9395 6.3447C61.9393 7.17441 61.232 7.84665 60.3604 7.84665C59.4887 7.84659 58.7824 7.17437 58.7822 6.3447C58.7822 5.51487 59.4886 4.84183 60.3604 4.84177Z" fill="#111111"/>
  <path d="M19.0852 23.0817C18.7802 23.081 18.4793 23.0155 18.2044 22.8901C17.9294 22.7646 17.6873 22.5823 17.4957 22.3565L11.231 14.9635C10.8887 14.5594 10.729 14.0425 10.7871 13.5263C10.8452 13.0102 11.1163 12.5372 11.5407 12.2113C11.9652 11.8854 12.5082 11.7334 13.0504 11.7887C13.5926 11.844 14.0896 12.102 14.4319 12.5061L20.6856 19.8991C20.9284 20.1866 21.0809 20.5335 21.1255 20.8999C21.1702 21.2663 21.1051 21.6373 20.9378 21.97C20.7705 22.3027 20.5078 22.5836 20.18 22.7803C19.8522 22.977 19.4727 23.0815 19.0852 23.0817Z" fill="#EB7333"/>
  <path d="M11.3123 23.0817C11.0023 23.0826 10.6961 23.0164 10.417 22.888C10.1378 22.7597 9.89295 22.5726 9.70096 22.3409L6.23703 18.1669C6.05976 17.9665 5.92658 17.7343 5.84538 17.4839C5.76419 17.2336 5.73664 16.9703 5.76436 16.7096C5.79209 16.449 5.87453 16.1963 6.0068 15.9665C6.13906 15.7367 6.31845 15.5346 6.53433 15.3721C6.75021 15.2096 6.99818 15.09 7.26353 15.0204C7.52887 14.9509 7.8062 14.9328 8.07904 14.9672C8.35189 15.0015 8.61469 15.0877 8.85188 15.2207C9.08906 15.3536 9.29579 15.5305 9.45979 15.7408L12.9237 19.9148C13.1645 20.2025 13.3149 20.5492 13.3576 20.9147C13.4003 21.2803 13.3336 21.65 13.1651 21.981C12.9967 22.3121 12.7334 22.5911 12.4056 22.7858C12.0777 22.9806 11.6988 23.0831 11.3123 23.0817Z" fill="#EE8D58"/>
  <path d="M17.2808 8.16001C17.2677 8.7429 17.1165 9.31544 16.8384 9.83491C16.5603 10.3544 16.1626 10.8073 15.6749 11.16L18.0426 13.9513C19.3239 13.0677 20.2784 11.8207 20.7693 10.3889C21.2603 8.95721 21.2626 7.41428 20.7758 5.98125C20.289 4.54823 19.3381 3.29867 18.0595 2.41166C16.7809 1.52465 15.2401 1.04571 13.6579 1.04349H3.01402C2.50525 1.04349 2.01732 1.23588 1.65756 1.57834C1.29781 1.9208 1.0957 2.38527 1.0957 2.86957C1.0957 3.35388 1.29781 3.81836 1.65756 4.16082C2.01732 4.50328 2.50525 4.69566 3.01402 4.69566H13.625C14.5913 4.69702 15.5179 5.06196 16.2027 5.71091C16.8875 6.35986 17.275 7.2402 17.2808 8.16001Z" fill="#E96620"/>
  <path d="M2.32026 19.7067L2.28537 19.7399C1.48271 20.504 1.48271 21.7428 2.28537 22.5068L2.32025 22.54C3.12291 23.3041 4.42428 23.3041 5.22694 22.54L5.26182 22.5068C6.06448 21.7427 6.06448 20.5039 5.26182 19.7399L5.22694 19.7067C4.42428 18.9426 3.12291 18.9426 2.32026 19.7067Z" fill="#F0996A"/>
</svg>
